<svg version="1" xmlns="http://www.w3.org/2000/svg" width="480" height="480" viewBox="0 0 360.000000 360.000000"><path d="M153.5 69.8c-1.1.9-3.6 2.7-5.5 3.9-1.9 1.2-4.8 3.4-6.5 4.7-3.9 3.3-3.4 3-14.5 11.1-5.2 3.8-9.7 7.2-10 7.5-.9.9-52.2 39.4-58 43.5-3.1 2.2-6.3 4.5-7.1 5.2-6.6 5.6-8.8 7.3-9.7 7.3-.5 0-1.2.7-1.6 1.5-.3.8-1.2 1.5-2 1.5s-1.6.3-1.8.8c-.5 1.1-17.7 14.2-18.7 14.2-.5 0-1.1.4-1.3.8-.1.4-3.1 2.9-6.5 5.5-7.4 5.7-8 7.6-2.4 7.3 3.3-.2 3.8 0 3.3 1.6-.4 1.7-.5 1.7-1.7.2-.9-1.4-1.4-1.4-2-.4-.5.9-.4 1.1.3.6 1.1-.7 1.7.7 1.2 2.9-.1.5.8.1 1.9-.9 2-1.8 4.3-1.8 8.3-.1 1.1.4 1.8.3 1.8-.5 0-.6-.4-.9-.9-.6-.4.3-1.6 0-2.6-.8-1.5-1.1-1.6-1.3-.1-1.3.9 0 1.6.5 1.6 1s.8.3 1.7-.4c1.1-1 1.4-1 .9-.2-.4.7-.4 1.3.1 1.4.4 0 1.6.2 2.6.4.9.2 1.5-.1 1.1-.6-.3-.5-1-.6-1.6-.3-.7.5-.8.2-.3-.6.6-1 1.2-.8 2.7.9 1 1.3 1.8 1.8 1.8 1.2 0-.6.7-1.1 1.5-1.1s1.5-.5 1.5-1.1c0-.8.5-.8 1.5.1.8.7 2.2 1 3 .6.8-.3 1.5 0 1.5.7s1.1 1.3 2.4 1.3c1.4 0 2.2-.4 2-.8-.3-.5-.9-.6-1.4-.3-.5.3-1.4-.5-2-1.7-1-2-1-2.1.3-.6 1.1 1.4 1.6 1.5 2.7.5 1-.9 1.1-.9.6 0-.4.7-.2 1.4.3 1.4 2.6.3 3 .4 3.7 1.2.4.4 1.2.7 1.8.7.6 0 .2-.7-.8-1.5s-2.4-1.2-3-.8c-.6.3-.7.2-.3-.2 1.1-1.2 3.7-1.5 3.7-.4 0 .5.5.9 1.1.9.5 0 .7-.6.3-1.3-.5-.8-.2-.8.9.2 1.8 1.5 2.3 2.6.7 1.6-.6-.3-1-.1-1 .5s1.1.8 2.4.6c1.4-.2 2.7.1 2.9.7.2.6.6.3 1-.7.4-.9.3-1.5-.1-1.2-.5.3-.9-.2-.9-1 0-1.1.5-1 2.1.5 1.8 1.6 2.4 1.8 3.9.7.9-.7 1.7-1.7 1.7-2.1 0-.4-.7-.2-1.5.5s-1.5.8-1.5.3c0-.9 2.7-2.6 6.3-3.7 1.1-.3 1.5-1.1 1.1-1.7-.4-.8-.3-.9.5-.5.7.5.9 1.7.5 2.9-.8 2.6-.1 2.1 1.6-1.2.6-1.3.8-2.1.3-1.8-.5.4-1 0-1-.8 0-1.1.5-1.2 2.1-.3 1.9 1 2 1 .7-.6-.8-.9-1-1.6-.5-1.5.5.1 1.8.1 2.9 0 1.7-.1 1.8-.3.5-1.1s-1.3-1 .2-1c.9 0 1.9.6 2.2 1.2.3.7.4.4.1-.8-.4-1.5.5-2.9 3.4-5.2 4.2-3.4 6.1-4 6.1-2 0 .6.3.8.6.5.4-.4.1-1.4-.7-2.3-1.1-1.4-1-1.5.7-1.2 1 .1 2.2.7 2.6 1.3.5.6.8.6.8-.2 0-.7-.7-1.6-1.5-2-1.2-.7-1.2-1 .4-2 2.2-1.3 2-2 2.4 12 .1 6-.1 11.1-.5 11.3-.5.3-.5 1.1-.1 1.7 1.1 1.8 1 19.7-.1 19-.5-.4-.6-.1-.1.8 1.4 2.1 1.5 6 .3 5.3-.7-.5-.8-.2-.3.6 1.2 1.9 1.3 26 .1 25.3-.5-.4-.6-.1-.1.8 1.4 2.1 1.5 6 .3 5.3-.7-.5-.8-.2-.3.6 1.1 1.8 1.4 15.2.3 16.6-.4.6-.2 1.1.7 1.1.8 0 1.1-.5.8-1-.3-.6-.2-.7.4-.4.5.3.9 2 .8 3.6-.1 2.5.1 2.9 1.2 1.9.7-.6 1.6-.8 2-.5.3.4 1.2.2 1.9-.3 1.5-1.3 3.6-.9 5.1 1 .6.8 1.5 1.2 1.9.7.4-.4.2-.7-.4-.7-.7 0-1.2-.5-1.2-1.1 0-.6.7-.9 1.5-.5 1.5.5 1.9-.5 1.5-3.3-.1-.8.4-1.1 1.2-.9 1.1.5 1.3-4.7 1.1-28.3-.2-18.5.1-28.9.7-28.9s1-.6 1-1.4c0-.8.5-1.8 1.2-2.2.7-.4.8-.3.4.4s-.2 1.2.5 1.2c.6 0 .9-.8.6-1.9-.3-1.4-.1-1.8.9-1.4.8.3 1.1 1 .7 1.6-.4.6-.1.7.6.3.7-.5 1-1.4.7-2.2-.3-.8-.1-1.4.5-1.4s.7-.6.3-1.3c-.4-.6-.4-.9.1-.5.4.4 1.5.2 2.3-.5 1.3-.9 1.4-.9.8 0-.4.7-.2 1.3.3 1.3.6 0 1.1-.4 1.1-.9s.8-.8 1.8-.7c.9 0 1.6-.5 1.4-1.2-.1-.8.2-1.1.8-.7.6.3.7 1.1.3 1.8-.3.6.7.1 2.4-1.1 2-1.4 3.4-1.9 3.8-1.2.4.6.1.9-.6.8-.6-.2-1.4.3-1.7 1.1-.2.8 0 1.1.6.7 1.5-.9 7.2-1.5 6.7-.7-.2.4 0 1.3.6 2.1.7 1.2.9 1.1.9-.5 0-1.4.3-1.6 1.2-.7.8.8.8 1.5-.3 2.8-.9 1.2-1 1.5-.1 1 .7-.4 1.5-.1 1.8.8.3.9 1 1.3 1.5 1 .5-.3.9 0 .9.5 0 .6-.6 1.1-1.2 1.1-1 0-1 .2 0 .9.8.4 1.3 1.1 1.3 1.5-.1.3-.1.7 0 .8.6 1.8.4 4.8-.3 4.8-.5 0-.4.9.2 1.9.7 1.4.7 2.2 0 2.6-.8.5-.8 1.1 0 2 .8 1 .8 1.5 0 2s-.8 1.1-.1 1.9c.7.9.7 1.6 0 2.3-.8.8-.8 1.7 0 3.2.9 1.6.9 2.1 0 2.1s-.9.3 0 1.4c.9 1 .9 1.6.1 2.1s-.8 1.1-.1 1.9c.7.9.7 1.6-.1 2.4-.7.7-.8 1.2-.2 1.2.5 0 1 .9 1 2s-.4 2-.8 2c-.5 0-.4.9.2 2 .8 1.5.8 2-.1 2-.8 0-.9.4 0 1.3.8 1 .7 1.7-.1 2.5-.8.8-.8 1.2-.1 1.2 1 0 1 4.1-.1 5.9-.4.5-.2 1.3.4 1.6.8.5.8 1.1 0 2-.7.9-.6 1.6.5 2.5.9.7 1.3 2.1 1 3.1-.4 1.1-.2 1.9.5 1.9.6 0 .8-.4.5-1-.3-.6.1-1 1-1 1 0 1.3.5.9 1.2-.6 1-.4 1 .7.2.8-.5 2.1-1 2.9-.9.8 0 1.9-.4 2.3-1 .5-.6.7-.4.4.5-.2.8-1.3 1.5-2.5 1.4-1.2 0-1.9.3-1.6.8.8 1.3 3.1.9 4.5-.8 1.2-1.5 1.4-1.5 1.9 0 .4 1.3.7 1.3 1.8-.5 1.1-1.7 1.1-2 0-1.4-.7.3-.4-.1.7-1 1.4-1.1 2-2.9 2.1-6.5.1-2.6.5-5.3.9-5.9.3-.6.3-1.1-.2-1.1-1 0-.9-5.2.1-6.8.4-.7.4-1.2-.1-1.2-1 0-.9-5.2.1-6.8.4-.7.4-1.2-.1-1.2-1 0-.9-5.2.1-6.8.4-.7.2-1.2-.5-1.2-.9 0-.9-.3 0-1.4.8-.9.8-1.5.1-1.8-.7-.2-.7-1.4-.1-3.6.7-2.2.6-3-.1-2.6-.6.4-.8-.1-.4-1.2 1.5-5 .5-17-2.2-24.7-1.9-5.7-7.3-11.7-12.5-14.1-5.7-2.6-17.4-3.2-23.3-1.2-4.6 1.6-12.1 6-13.6 8.1-.9 1.3-.7-35 .2-36.5 1-1.5 2.1-1.5 3.1.2.6.9.9.9.9.1 0-.7-.8-1.7-1.7-2.3-1.7-1.1-1.7-1.1.1-.6 1.4.5 1.7.2 1.2-1.1-.4-1-.4-1.4-.1-1.1.6.6 5-2.6 14-10 1.1-.9 2.5-1.7 3-1.7.6-.1.9-.6.8-1.3-.2-.7.4-.9 1.4-.5 1 .4 1.4.2.9-.5-.9-1.5.7-2.3 2.4-1 1.2.8 1.1.8-.5.3-1.5-.5-1.7-.3-.8.6 1.8 1.8 3.7.1 2.1-1.9-1-1.2-1-1.4 0-.8.6.4 1.2.2 1.2-.3 0-.6.4-1.1 1-1.1.5 0 .7.8.4 1.7-.5 1.5-.4 1.5.4.3.7-.9.7-1.8.1-2.6-.6-.7-.4-1.6.6-2.4.8-.7 1.5-.9 1.5-.5s1.2-.4 2.6-1.9c2-1.9 3-2.3 4-1.5 1 .8 1.1.5.7-1-.5-1.9.4-2.6 3-2.2.4 0 .7-.7.7-1.6 0-1.5.2-1.6 1-.3s1 1.3 1-.2c0-1.2.6-1.5 2.3-1.1 2.2.5 2.2.5.2-1.1-1.1-1-1.5-1.5-.8-1.2.6.3 2.3-.8 3.7-2.5 1.4-1.7 2.6-2.5 2.6-1.9 0 .6.5.8 1 .5.6-.4.7-1.1.4-1.7-.4-.7-.2-.8.5-.4s.9 1.7.6 2.9c-.6 2.1-.5 2.1.8-.1.7-1.2 1.7-1.9 2.2-1.5.4.4.5.2.1-.5s-1.2-1-1.7-.7c-.5.4-.9.3-.9-.2 0-.4 1.6-1.9 3.4-3.3 1.9-1.4 3.2-2.9 2.8-3.4-.3-.5.1-.6.8-.1 1 .6.8 1.2-.8 2.4-1.7 1.2-1.9 1.9-1.1 3.1.9 1.3 1 1.3.6-.1-.4-1.1.3-2.1 1.9-2.9 2-1.1 2.2-1.6 1.1-2.8-1.1-1.3-.9-1.4 1.3-.2 2.4 1.3 2.4 1.2 1-.5s-1.3-1.7.5-.8c2 1.1 5.5-.3 5.5-2.2 0-.5-.8-.1-1.8.8-1.7 1.6-3.2 1.4-3.2-.4 0-.5.7-.5 1.7-.2.9.4 1.4.2 1-.4-.7-1.1 4.2-1.1 6 0 .7.4.9 1.5.6 2.4-.4 1.1-.2 1.4.8 1.1.8-.3 2.3-.1 3.3.5 1.8.9 1.8 1 .3 2.2-1.5 1.1-1.4 1.2 1 1.2 1.5 0 2.9.6 3.1 1.2.2.6.8.9 1.3.6.5-.4.6 0 .3.8-.3.9.4 2.2 1.8 3.1 2.7 1.9 4.2 2.1 3.2.3-.4-.6.5-.1 1.9 1.2 1.5 1.4 2.7 2.9 2.7 3.5 0 .6-.7.3-1.4-.7-.8-1-1.7-1.4-2-.9-.7 1.2 2 2.6 6.2 3 .7.1 1 .6.7 1.2-.3.5-.1 1 .5 1s.8.5.4 1.2c-.6 1-.4 1 .8 0 1.3-1 1.7-1 2.2.3.3.9 1.1 1.3 1.7.9.8-.4.9-.3.5.5-.6.9-1.2.9-2.4-.1-1-.6-.1.4 1.8 2.4 1.9 2 3.9 3.4 4.5 3.1.6-.2 2.2.1 3.6.7 2.3 1 2.3 1-.6.6-1.6-.3-2.4-.3-1.7 0 .6.3 1 .9.7 1.4-.3.4.1.8.8.7 3.6-.1 4.4.4 4.2 2.6-.2 1.6.2 2.3 1.5 2.3 1 0 1.6-.6 1.3-1.3-.3-.7-1-1-1.6-.6-.6.3-.7.1-.3-.5 1-1.6 2.6-1.5 2.6.2 0 1.4 2.7 3.1 4.3 2.7.5-.1.6.3.2.9-.5.8-1.1.8-2 0-.9-.7-1.6-.6-2.4.3-.9 1.2-.5 1.4 2.4 1.2 2.6-.1 3.4.2 3.1 1.1-.3.8-.1 1.6.5 1.9.5.4.7 1.1.4 1.6-.3.5.2.6 1.1.2 1.6-.6 1.6-.7 0-1.9-1-.6-1.3-1.5-.8-1.8.4-.2 1.4.4 2.2 1.4.8 1 1.7 1.7 2.1 1.4.5-.2.6.4.4 1.5-.2 1.3.5 2.8 2 3.9 1.4 1.1 2.1 2.3 1.7 2.7-.4.5-.2.5.4.2.7-.4 1.7 0 2.4.8s1.9 1.5 2.6 1.5c1.3 0 1.9 1.3 1.5 3.3-.1.5.3.6.8.2 1.6-1 .1-3.3-3.5-5.4-1.9-1.1-3.4-2.5-3.4-3.1 0-.6-.5-.8-1.2-.4s-.8.3-.4-.4c.4-.6 1.3-.9 2.1-.6.8.4 1.2 1 .9 1.5-.3.5.2.9 1 .9.9 0 1.6.4 1.6.9s.9 1.2 1.9 1.6c1 .3 2.2 1.6 2.5 2.8.5 1.8.8 2 1.6.7.7-1.1.8-.6.6 1.7-.3 2.4-.1 3 1 2.6.8-.3 1.4-.9 1.4-1.5 0-.5-.5-.6-1.2-.2-.7.4-.8.3-.4-.5.9-1.4 2.6-.5 2.6 1.5 0 .9.5 1.2 1.3.8 1-.6 1-.4 0 .7-1.9 2-1.6 3.3.3 1.4 1.9-1.9 3.2-1.2 1.5.9-.9 1.1-.9 1.6 0 2.2.7.4.9.3.6-.3-.4-.6.2-1.3 1.3-1.6 1.1-.3 1.8 0 1.7.6-.1.6.5 1.1 1.3 1.2.8 0 1.6.6 1.6 1.2.3 3 .4 3.3 1.4 3.3.5 0 .7-.8.4-1.8-.5-1.3-.4-1.4.4-.3.6.8.8 1.9.6 2.6-.3.6.7 1.7 2.1 2.3 1.6.7 2.3 1.7 1.9 2.4-.4.7-.3.8.5.4.6-.4.8-1.2.5-1.8-.5-.7-.2-.8.5-.4.7.5 1 1.5.6 2.3-.4 1.3-.3 1.3.8.4s1.7-.8 2.6.3c1 1.1.8 1.7-.6 2.5-1 .6-1.3 1-.8 1.1.6 0 1.6-.4 2.4-.9.9-.6 2.3-.4 3.8.6 2 1.3 2.1 1.8 1.1 3.1-1.1 1.3-1 1.5.3 1 .9-.3 2.2-.2 3 .4 1.1.8 1 .9-.4.4-1.1-.4-1.6-.2-1.1.5.3.6 1.5.8 2.6.6 1.4-.4 1.7-.2.9.7-1.5 1.8-.1 2.8 1.7 1.3 1.3-1 1.4-.9.8.1-.5.9-.1 1.5 1.3 1.9 1.7.4 1.9.8.9 2.7-1.1 2-1 2 .9.3 1.7-1.5 2.2-1.5 3.1-.4.7.8.9 1.7.5 2-.3.4-.1.7.6.7s.9.5.5 1.2c-.4.6.3.4 1.6-.5 1.7-1.2 2.8-1.3 4.2-.6 1 .5 1.6 1.4 1.3 2-.4.5-.2.9.3.9.6 0 1.3-.7 1.6-1.6.4-1 .2-1.3-.6-.8-.7.4-.8.3-.4-.4s0-1.2-1-1.2-1.5-.3-1.1-.6c.3-.4 1.4-.3 2.4.1 2.7 1.2 7.4 1.5 6.8.4-.4-.5.1-.6.9-.3 1.8.7 2.2 2.5.5 2.2-.6-.2-1.4.4-1.6 1.2-.4 1.3-.3 1.3.6 0 1-1.3 1.1-1.3 1.1 0 0 1.2.2 1.2.9.2 1.1-1.7 2.1-1.7 3.2 0 .6.9.9 1 .9.1 0-.7.7-1 1.5-.7.8.4 1.5.1 1.5-.4 0-.6-.9-.9-2-.7-1.1.2-1.8 0-1.5-.5.3-.4 1.3-.7 2.3-.5.9.1 2.2-.2 2.9-.7.7-.5 1.4-.5 1.7.1.4.5 1.8.8 3.1.5 1.4-.2 2.5 0 2.5.5 0 .6-.8.8-1.8.6-1.1-.2-1.9.3-1.9 1.1 0 1 .4 1.1 1.4.3 1-.9 1.3-.8 1.3.2 0 1.2.2 1.2.9.1.4-.8 1.2-1.4 1.6-1.4.4 0 1.2.6 1.6 1.4.6.9.9 1 .9.1 0-.7.7-1 1.5-.7.8.4 1.5.1 1.5-.4 0-.6-.9-.9-2-.7-1.1.2-1.8 0-1.5-.5.3-.4 1.3-.7 2.3-.5.9.1 2.2-.1 2.8-.6.7-.5 1.1-.3 1.1.6 0 .8-.3 1.2-.7 1-.4-.2-.7.2-.7.9 0 2.3 2.7.6 2.8-1.8 0-2 .1-2 .8-.1.5 1.1.7 2.3.5 2.6-.2.3.3.6 1 .6s1.3-.6 1.3-1.3c0-.7-.3-1.1-.7-.9-.4.2-.7-.2-.7-.9 0-.8 1.4-1.2 4.2-1.2 6.7.1 5.5-2.3-5.2-10.6-5.2-4-10.7-8.2-12.2-9.3-5.8-4.2-22.6-17-23.6-18-.5-.6-7.3-5.8-15-11.5-7.7-5.8-14.2-10.7-14.5-11-1.8-1.8-10-8-10.6-8-.3 0-1.4-.8-2.3-1.8-1.9-2-13.9-11.2-14.7-11.2-.3 0-1.9-1.3-3.7-3-1.8-1.6-3.5-3-3.8-3-.4 0-2.2-1.3-4-3-1.9-1.6-3.7-3-4-3-.3 0-1.7-1-3-2.1-2.8-2.5-19-15-25.4-19.5l-4.4-3.2-26.8-.1c-24.6-.1-27 0-28.8 1.7zm46.9 33.3c-.3.5-1 .7-1.5.3-.5-.3-.7-1-.3-1.5.3-.5 1-.7 1.5-.3.5.3.7 1 .3 1.5zm19.2 15.3c.8.8 1.1 1.7.7 1.9-.5.2-1.6-.4-2.5-1.5-2.1-2.1-.4-2.5 1.8-.4zm25.4 21.2c0 .8-.5 1.2-1 .9-.6-.4-.8-1.1-.5-1.6.9-1.4 1.5-1.1 1.5.7zm33 25c0 .2-.7.4-1.5.4s-1.5-.4-1.5-1c0-.5.7-.7 1.5-.4.8.4 1.5.8 1.5 1zM53 186.5c0 .8-.2 1.5-.4 1.5s-.6-.7-1-1.5c-.3-.8-.1-1.5.4-1.5.6 0 1 .7 1 1.5zm254-.1c0 .3-.4.8-1 1.1-.5.3-1 .1-1-.4 0-.6.5-1.1 1-1.1.6 0 1 .2 1 .4zm17.3 1.1c-.3.9-.8 1.4-1 1.1-.3-.3-.2-.9.2-1.5.9-1.6 1.5-1.3.8.4zm16 0c-.3.9-.8 1.4-1 1.1-.3-.3-.2-.9.2-1.5.9-1.6 1.5-1.3.8.4zM143 198c0 .5-.2 1-.4 1-.3 0-.8-.5-1.1-1-.3-.6-.1-1 .4-1 .6 0 1.1.4 1.1 1z"/><path d="M184.5 92c-.3.5.1 1 1 1s1.3-.5 1-1c-.3-.6-.8-1-1-1-.2 0-.7.4-1 1zM189 96c0 .6.7 1 1.5 1s1.5-.2 1.5-.4-.7-.6-1.5-1c-.8-.3-1.5-.1-1.5.4zM194 100.9c0 .7-.5.9-1.2.5-.7-.5-.8-.3-.3.5.5.9 1 1 1.8.2.6-.6.8-1.4.4-1.8-.4-.3-.7-.1-.7.6zM160.4 107.2c-1.1 1.2-1.4 1.8-.7 1.5.6-.4 1.3-.3 1.5.3.2.6.9.1 1.5-.9 1.8-2.8-.1-3.5-2.3-.9zM207.5 112c-.3.5-.1 1 .4 1 .6 0 1.1-.5 1.1-1 0-.6-.2-1-.4-1-.3 0-.8.4-1.1 1zM155.6 113.8c-.3.5.1.9.9.9s1.2-.4.9-.9c-.3-.4-.7-.8-.9-.8-.2 0-.6.4-.9.8zM150.7 114.7c-.3.5-.2 1.5.2 2.2.7 1 1 1 1.6.1.4-.6.3-1.6-.3-2.2-.5-.5-1.2-.6-1.5-.1zM144.9 119.7l-2.4 2.6 2.7-1.9c1.5-1 2.8-2.2 2.8-2.7 0-1.2-.5-.8-3.1 2zM140.7 121.6c-.3.5.1 1.5.9 2.2 1.6 1.4 1.8.5.5-1.7-.5-.7-1.1-.9-1.4-.5zM131.5 131c-.4.6-1.1.8-1.6.5-.5-.4-.9-.2-.9.3 0 .6.8 1.3 1.7 1.6 1 .4 1.4.4 1 0-.4-.4-.2-1.3.4-2.1.6-.7.9-1.3.6-1.3-.3 0-.9.5-1.2 1zM125.5 135.1c-.3.4.2.6 1 .5 2.1-.3 2.8-1.3 1-1.3-.9 0-1.8.4-2 .8zM119.1 139.8c-3 2.6-3.9 3.9-2.8 3.9.9 0 1.5-.2 1.3-.5-.7-.7 1.8-3.1 2.7-2.5.4.2.7-.1.7-.7 0-.7.7-1 1.4-.7 1.1.4 1.3.1.9-1-.5-1.2-.3-1.4.7-.8.9.5 1.1.4.6-.3-.9-1.5-.4-1.8-5.5 2.6zM266.6 159.4c.7 1.9 2 2.1 3 .3.4-.6.4-.9-.1-.5-.4.4-1.4.3-2.2-.4-1.1-.8-1.2-.7-.7.6zM82.6 168.8c-.2.4 0 1.4.6 2.2.8 1.2.9 1.2.5-.2-.3-.9-.1-1.9.6-2.2.9-.3.9-.5 0-.5-.6-.1-1.4.3-1.7.7zM281 170c0 .5.5 1 1.1 1 .5 0 .7-.5.4-1-.3-.6-.8-1-1.1-1-.2 0-.4.4-.4 1zM78.1 172.9c-.8.5-.9 1.1-.3 1.5.5.3 1.2-.1 1.6-.9.6-1.7.6-1.8-1.3-.6zM284 173.5c-1 1.2-.8 1.3.9 1 1.2-.2 2.1 0 2.1.5s-4.1 1.1-9.2 1.2l-9.1.3-1.3 4c-1.2 4.1-9.8 40-9.5 40 .1 0-.6 2.5-1.5 5.5s-1.7 6.1-1.7 6.7c-.1 3-1.4.9-2.9-4.5-2-7-11-37.4-13.5-45.7l-1.9-6-7.6-.3-7.5-.3-2.6 8.3c-1.4 4.6-3.4 11.4-4.6 15.3-1.1 3.8-4 13.6-6.3 21.6l-4.4 14.7-1.9-8.2c-1-4.4-2-8.6-2.1-9.1-.1-.6-2.1-8.7-4.4-18-2.2-9.4-4.5-18.7-5.1-20.8l-1-3.7h-18.2l.6 3.2c.3 1.8.9 4.2 1.3 5.2.5 1.4.4 1.7-.5 1.1-.8-.4-.6.3.3 1.8 1.3 2 1.4 2.6.4 3-.8.3-.6.6.5.6 1 .1 1.6.5 1.2 1-.3.5-.1 1.2.4 1.5.5.4.8 1.8.5 3.2-.3 1.6-.1 2.3.6 1.9.6-.4 1-.3.9.2-.4 2.2.2 5.4.9 4.9.4-.3.9 1.1.9 3.1.1 2 .7 3.9 1.3 4.3.9.6.7.9-.6 1.3-1.7.4-1.6.5.3.6 1.6.1 2 .6 1.6 2-.3 1 0 2.2.7 2.6.8.5.7 1.1-.2 2.3-.8.9-.8 1.3-.2.9 1.3-.8 2.7 1.9 1.8 3.4-.3.5.1.9.8.9 1.1 0 1 .2 0 .9-1.1.7-1 .9.3 1.5 1.1.4 1.4 1.2 1 2.7-.6 1.6-.4 2 .6 1.4 1.1-.6 1.2-.5.2.6-.7.7-1.3 1.8-1.3 2.3 0 .6.4.5.9-.2.6-1 1.1-.6 1.9 1.6.9 2.7.8 3-.6 2.5-1-.3-.8.1.6 1.1 1.2 1 2.2 2.2 2.2 2.8 0 .6-.7.5-1.7-.3-1.7-1.3-1.7-1.3 0 .7.9 1.1 1.4 2.4 1 2.7-.3.4-.1.7.5.7.7 0 1.2.9 1.2 1.9 0 1.1.5 2.3 1 2.6.8.5.7 1.2-.2 2.3-.8 1-.9 1.3-.1.9.6-.4 1.4-.3 1.8.3.3.5.1 1-.4 1-.6 0-1.1.5-1.1 1.1 0 .5.4.7 1 .4.6-.3.7.1.4.9-.4.9-.1 1.6.6 1.6s1 .8.7 1.9c-.3 1.3 0 1.8.7 1.5 1.4-.6 1.5 2.3.1 4.6-.8 1.3-.6 1.3.8.1.9-.7 1.5-1.7 1.2-2.1-.3-.5-.1-1.2.5-1.5.6-.4 1-.3.9.2-.5 2.9 2.4 5.3 3.7 3.1.4-.6.3-.8-.4-.4-.6.3-1.4.1-1.8-.6-.4-.7-.4-1 .1-.6.4.4 1.4.3 2.2-.4 1.1-.9 1.3-.8 1.1.1-.2.8.5 1.5 1.5 1.6 1.2.2 1.7-.1 1.3-1-.3-.9 0-1.2 1-.8.7.3 1.4 1 1.4 1.7 0 .6.5.3 1.1-.7.5-.9.7-2.3.3-3-.6-.8-.3-.8.9.1 1.4 1.2 1.6 1.1 1.2-.7-.2-1.1.3-2.8 1.1-3.6 1.2-1.1 1.2-1.5.2-1.5-.8 0-.9-.3-.3-.8.6-.4 1-1.3 1.1-2 .2-2.9.5-3.3 1.7-2.6.6.4.9.4.5-.1-.4-.4-.2-1.5.5-2.3.9-1.3.9-1.4 0-.8-1.9 1.1-1.6-.5.5-2.1.9-.8 1.1-1.2.5-.8-2.2 1.1-1.4-1.3 1-3.1 1.5-1.1 1.6-1.5.5-1.1-1.2.4-1.8.1-1.8-.8 0-.8.5-1.5 1.2-1.5.6 0 .8-.3.5-.7-.4-.3.1-1.2 1.1-2 .9-.8 1.1-1.1.3-.7-1 .5-1.1.1-.6-1.7.4-1.3 1.3-2.7 1.9-3.1.8-.5.7-.8-.2-.8-.7 0-1-.5-.7-1 .4-.6 1.2-.7 1.8-.3.7.4.6 0-.2-1-1.2-1.5-1.1-1.7.5-1.7 1.4 0 1.5-.3.6-.8-.7-.5-1-1.6-.6-2.5.3-.9 1.1-1.4 1.6-1.1.7.5.7.1 0-1.1-.7-1.4-.6-2.2.7-3.4.9-.9 1.1-1.2.4-.7-1 .6-1 0 .2-2.7.8-1.9 1.1-3.7.8-4.1-.4-.3.2-.6 1.2-.6 1.4 0 1.5.3.6 1.4-1 1.1-.8 1.8.9 3.4 1.9 1.8 3.2 5.8 3.4 10.4 0 .9.4 1.4.8 1.2.8-.5 1.2.9.9 3.8-.1 1 .3 1.8 1 1.8.9 0 .9.3 0 1.4-.9 1.1-.9 1.6 0 2.2.8.5.9.3.4-.6-.5-.9-.4-1.1.3-.6.6.4 1 2 .8 3.6-.2 1.6 0 2.7.4 2.5 1.6-1 1.7 2.1.1 4-1.5 1.8-1.5 1.9.1.7 1.1-.9 1.8-1 2.3-.2.3.5.1 1-.5 1-.7 0-.5.6.4 1.5.9 1 1.4 2.8 1.2 4.5-.2 1.6 0 2.7.4 2.5.4-.3 1.1.2 1.4 1.1.3.8.2 1.2-.4.9-.6-.3-.7.1-.4.9.3.9 1 1.6 1.6 1.6.5 0 .6.5.3 1-.4.6-1.2.7-1.8.3-.7-.4-.6 0 .2 1 1.6 2 2.5 2.2 1.6.4-.4-.6.3-.2 1.4 1.1 1.1 1.3 1.7 3 1.4 3.7-.3.8 0 1.5.6 1.5s1.1-.4 1.1-.9.8-.8 1.8-.6c.9.1 1.6.8 1.4 1.5-.1.6.2.9.8.5.6-.3.8-1 .6-1.4-.3-.4 0-1.3.6-2.1.8-1.2.9-1.2.4.2-.3 1-.1 2 .4 2.3.6.4 1 0 1-.7 0-.8.3-.9.8-.3 1.9 2.7 6.4.2 4.6-2.6-.3-.5 0-.9.6-.9s.9-.4.6-.9c-.8-1.2.4-4.2 1.3-3.6.4.2.7-.6.6-1.8-.1-1.2.5-2.8 1.4-3.5 1.3-1.1 1.3-1.2.1-.6-1 .5-.8 0 .4-1.5 2-2.2 2-2.2 0-1.6-1.8.6-1.8.6-.2-.8 1-.8 1.5-1.7 1.2-2-1.1-1 .7-4.8 1.9-4 .8.4.7.1-.1-.9-1-1.3-1-1.8-.1-2.4.8-.5.9-.3.4.6-.5.8-.4 1.1.3.7.5-.4.8-1.7.4-2.9-.4-1.6-.2-1.9.9-1.3 1.2.8 1.2.6 0-.8-.7-.9-.9-1.7-.4-1.7s1-.6 1-1.3c.1-2.4.8-4.2 2.3-5.5.8-.8.9-1.1.3-.7-1.4.7-1.7-.4-.7-2.9.3-.8 1.3-1.2 2.2-.9 1.2.3 1.3.2.4-.4-1.3-1-1.2-3.9.1-6.1.5-.6.5-1.2.1-1.2s.1-1 1.2-2.2c1.2-1.3 1.3-1.8.4-1.3-1.2.7-1.3.6-.3-.7.7-.8 1-1.8.6-2.1-.3-.4-.1-.7.6-.7s.9-.5.6-1c-.4-.6-.1-1.7.5-2.5s.9-1.9.5-2.5c-.3-.5-.2-1 .2-1 .5 0 1-.9 1.1-2 .4-4.4.6-5 1.5-5 .5 0 .7-.9.4-2-.3-1.3.3-2.8 1.6-4.2 1.2-1.1 1.6-1.8.9-1.4-1.5.9-.8-4.5 1.2-8.5 1.1-2.3 1.1-2.7-.5-3.7-1.3-.8-2-.8-2.9.3zM231 212c0 .5-.2 1-.4 1-.3 0-.8-.5-1.1-1-.3-.6-.1-1 .4-1 .6 0 1.1.4 1.1 1zm30 52.4c0 .3-.4.8-1 1.1-.5.3-1 .1-1-.4 0-.6.5-1.1 1-1.1.6 0 1 .2 1 .4zM301 186c0 .5.5 1 1.1 1 .5 0 .7-.5.4-1-.3-.6-.8-1-1.1-1-.2 0-.4.4-.4 1zM31 188c0 .6.4.9.9.6.5-.4 1.2-.1 1.4.4.3.6.4.5.3-.2-.3-1.5-2.6-2.3-2.6-.8zM330.9 187.2c-.7 2.9-.5 3.6.7 3.1 1.6-.6 1.8-1.9.4-2.8-.5-.3-1-.5-1.1-.3zM307.6 188.8c-.3.5.1.9.9.9s1.2-.4.9-.9c-.3-.4-.7-.8-.9-.8-.2 0-.6.4-.9.8zM315.3 189.7c0 .7.4 1.3.8 1.3s.9-.6 1.2-1.3c.3-.8 0-1.4-.7-1.4s-1.3.6-1.3 1.4zM23.6 190.2c.3.5 1 .6 1.5.3 1.3-.9 1.1-1.2-.6-1.2-.8 0-1.2.4-.9.9zM118.5 197.1c-.4.6-.5 1.2-.2 1.5.2.3.7-.2 1-1.1.7-1.7.1-2-.8-.4z"/><path d="M244 263.4c0 .2.7.7 1.6 1 .8.3 1.2.2.9-.4-.6-1-2.5-1.4-2.5-.6zM99 266.4c0 .2.7.7 1.6 1 .8.3 1.2.2.9-.4-.6-1-2.5-1.4-2.5-.6z"/></svg>